<svg width="465.59999999999997" height="127.32549107142857" viewBox="0 0 398.22222222222223 108.9" class="looka-1j8o68f"><defs id="SvgjsDefs1013"></defs><g id="SvgjsG1014" featurekey="symbolContainer" transform="matrix(0.9,0,0,0.9,0,0)" fill="#5171ff"><rect xmlns="http://www.w3.org/2000/svg" width="118" height="121" rx="10" ry="10"></rect></g><g id="SvgjsG1015" featurekey="monogramFeature-0" transform="matrix(1.8334173454452651,0,0,1.8334173454452651,15.342793006215738,-15.59501266296374)" fill="#ffffff"><path d="M28.652 40.078 l-8.3789 8.877 l17.578 0 l-2.5195 11.162 l-36.064 0 l2.1973 -9.668 l9.7559 -10.371 l-2.6367 0 l12.129 -12.832 l-15.703 0 l2.5488 -11.104 l34.131 0 l-2.2266 9.7266 l-13.477 14.209 l2.666 0 z"></path></g><g id="SvgjsG1016" featurekey="nameFeature-0" transform="matrix(2.058048922626581,0,0,2.058048922626581,122.70711063449501,0.30320880680748985)" fill="#393e46"><path d="M2.2434 31.0944 c-0.85756 -0.85756 -0.8576 -2.2482 -0.0003125 -3.1055 l11.596 -11.596 l-10.043 0 c-1.2128 0 -2.196 -0.98328 -2.196 -2.196 s0.98328 -2.196 2.196 -2.196 l15.345 0 c0.88832 0 1.6888 0.535 2.0289 1.3555 s0.15234 1.7651 -0.47576 2.3932 l-15.345 15.345 c-0.4288 0.4288 -0.99096 0.64316 -1.5529 0.64316 c-0.5622 0 -1.1241 -0.21438 -1.5529 -0.64316 z M19.141 35.6084 c1.2128 0 2.1963 0.98324 2.1963 2.196 s-0.98328 2.196 -2.196 2.196 l-15.345 0 c-0.88832 0 -1.6888 -0.535 -2.0289 -1.3555 s-0.15234 -1.7651 0.47576 -2.3932 l15.345 -15.345 c0.85812 -0.85784 2.2482 -0.85756 3.1058 0 s0.85756 2.248 0 3.1056 l-11.596 11.596 l10.043 0 z M33.548 19.412 c5.6764 0 10.294 4.6176 10.294 10.294 c0 1.2128 -0.98328 2.196 -2.196 2.196 l-13.576 0 c0.87292 2.17 2.9995 3.7059 5.4784 3.7059 c1.5765 0 3.0586 -0.6138 4.1732 -1.7286 c0.85784 -0.85756 2.248 -0.85732 3.1058 0 c0.85784 0.85784 0.85756 2.2482 0 3.1058 c-1.9446 1.9443 -4.5296 3.0149 -7.2792 3.0149 c-5.6764 0 -10.294 -4.6176 -10.294 -10.294 s4.6176 -10.294 10.294 -10.294 z M28.069600000000005 27.509999999999998 l10.957 0 c-0.87292 -2.17 -2.9995 -3.7059 -5.4784 -3.7059 s-4.6056 1.5359 -5.4784 3.7059 z M53.7684 19.412 c4.4004 0 7.98 3.5802 7.98 7.9804 l0 10.412 c0 1.2128 -0.98328 2.196 -2.196 2.196 s-2.196 -0.98328 -2.196 -2.196 l0 -10.412 c0 -1.9784 -1.6094 -3.5881 -3.5881 -3.5881 s-3.5881 1.6094 -3.5881 3.5881 l0 10.412 c0 1.2128 -0.98328 2.196 -2.196 2.196 s-2.196 -0.98328 -2.196 -2.196 l0 -16.196 c0 -1.2128 0.98328 -2.196 2.196 -2.196 c0.78592 0 1.4733 0.4142 1.8615 1.0349 c1.1592 -0.65744 2.4975 -1.0349 3.9227 -1.0349 z M74.016 19.412 c5.6764 0 10.294 4.6176 10.294 10.294 c0 1.2128 -0.98328 2.196 -2.196 2.196 l-13.576 0 c0.87292 2.17 2.9995 3.7059 5.4784 3.7059 c1.5765 0 3.0586 -0.6138 4.1732 -1.7286 c0.85784 -0.85756 2.248 -0.85732 3.1058 0 c0.85784 0.85784 0.85756 2.2482 0 3.1058 c-1.9446 1.9443 -4.5296 3.0149 -7.2792 3.0149 c-5.6764 0 -10.294 -4.6176 -10.294 -10.294 s4.6176 -10.294 10.294 -10.294 z M68.5376 27.509999999999998 l10.957 0 c-0.87292 -2.17 -2.9995 -3.7059 -5.4784 -3.7059 s-4.6056 1.5359 -5.4784 3.7059 z M96.715 35.608 c1.2128 0 2.1961 0.98332 2.1961 2.1961 s-0.98328 2.196 -2.196 2.196 c-5.7668 0 -10.459 -4.692 -10.459 -10.459 l0 -15.345 c0 -1.2128 0.98328 -2.196 2.196 -2.196 s2.196 0.98328 2.196 2.196 l0 5.2217 l6.0666 0 c1.2128 0 2.196 0.98328 2.196 2.196 s-0.98328 2.196 -2.196 2.196 l-6.0666 0 l0 5.7312 c0 3.3452 2.7215 6.0668 6.0668 6.0668 z M111.16400000000002 19.412 c1.2128 0 2.196 0.98328 2.196 2.196 s-0.98328 2.196 -2.196 2.196 c-3.2543 0 -5.902 2.6476 -5.902 5.902 l0 8.098 c0 1.2128 -0.98328 2.196 -2.196 2.196 s-2.196 -0.98328 -2.196 -2.196 l0 -16.196 c0 -1.2128 0.98328 -2.196 2.196 -2.196 c1.1071 0 2.0201 0.81996 2.1716 1.885 c1.677 -1.1856 3.721 -1.885 5.9264 -1.885 z M131.67600000000002 19.412 c1.2128 0 2.196 0.98328 2.196 2.196 l0 16.196 c0 1.2128 -0.98328 2.196 -2.196 2.196 c-1.1071 0 -2.0201 -0.81968 -2.1716 -1.885 c-1.677 1.1856 -3.721 1.885 -5.9264 1.885 c-5.6764 0 -10.294 -4.6176 -10.294 -10.294 s4.6176 -10.294 10.294 -10.294 c2.2054 0 4.2492 0.69944 5.9264 1.885 c0.15152 -1.0654 1.0645 -1.885 2.1716 -1.885 z M123.57800000000002 35.608 c3.2543 0 5.902 -2.6476 5.902 -5.902 s-2.6476 -5.902 -5.902 -5.902 s-5.902 2.6476 -5.902 5.902 s2.6476 5.902 5.902 5.902 z"></path></g></svg>
